<svg width="154" height="42" viewBox="0 0 154 42" fill="none" xmlns="http://www.w3.org/2000/svg">
<g clip-path="url(#clip0_715_322)">
<path d="M12.0183 13.7872C12.88 14.1975 13.7088 14.5996 14.5451 14.9869C15.1347 15.2601 15.7384 15.5023 16.328 15.7763C17.3841 16.2673 18.4306 16.7797 19.489 17.2677C20.089 17.5447 20.7077 17.7824 21.3107 18.0527C21.9576 18.343 22.6329 18.5933 23.2299 18.965C23.9731 19.4271 24.5597 19.0642 25.1895 18.7702C25.829 18.4711 26.473 18.1808 27.114 17.8838C27.746 17.5906 28.3751 17.2907 29.0079 16.9996C29.6079 16.7234 30.2124 16.4561 30.8132 16.1806C31.4333 15.8962 32.0505 15.606 32.6713 15.3216C33.2907 15.038 33.9138 14.7618 34.5332 14.4781C35.1109 14.2138 35.6863 13.9442 36.3623 13.6302C35.8898 13.3688 35.5149 13.1467 35.1258 12.9511C34.5653 12.669 33.9906 12.4135 33.4286 12.1343C32.8301 11.8374 32.2249 11.5486 31.6465 11.2153C30.4912 10.5481 29.1913 10.1282 28.1657 9.24109C27.4762 8.64496 26.9686 7.9296 26.6653 7.04985C26.429 6.36412 26.2732 5.68061 26.3403 4.96674C26.4998 3.28055 27.2355 1.91723 28.674 0.953794C29.6832 0.277688 30.7878 -0.047405 31.996 0.0592316C32.4365 0.0984797 32.8651 0.264359 33.2997 0.371736C34.3976 0.644252 35.3099 1.31221 36.3131 1.78541C37.262 2.23269 38.1996 2.72737 38.9942 3.4442C39.7373 4.11512 40.3664 4.85936 40.8456 5.74355C41.6014 7.13649 41.9078 8.61904 41.7482 10.1764C41.6789 10.8569 41.4486 11.5249 41.2518 12.1869C41.146 12.5416 41.2012 12.6905 41.67 12.9163C42.229 13.1852 42.8067 13.4243 43.3388 13.7391C43.9947 14.1271 44.6417 14.5426 45.2395 15.0128C46.0765 15.6711 46.6691 16.5264 47.167 17.4721C47.7163 18.5162 47.9675 19.6233 47.998 20.7689C48.0167 21.4687 47.8594 22.1782 47.7387 22.8765C47.5538 23.9488 47.0291 24.8715 46.3851 25.735C45.7061 26.6458 44.8571 27.3686 43.8732 27.9254C43.0787 28.3757 42.2648 28.7948 41.4404 29.1888C41.1259 29.3391 41.1699 29.5465 41.2585 29.756C41.7609 30.9483 41.8988 32.2005 41.7371 33.4572C41.55 34.9079 41.0014 36.2357 40.0652 37.3991C39.2759 38.3788 38.3181 39.1282 37.2053 39.7029C36.0321 40.3086 34.882 40.9618 33.6887 41.5246C32.9978 41.8504 32.2472 41.9993 31.4542 41.9993C29.7771 42.0007 28.4489 41.3394 27.3935 40.082C26.5609 39.0904 26.265 37.9419 26.2755 36.6571C26.2837 35.6425 26.6079 34.7369 27.1356 33.9386C27.5895 33.2528 28.2395 32.6937 29.0042 32.2953C29.8867 31.8362 30.7379 31.3171 31.6152 30.8483C32.7548 30.2389 33.9094 29.6568 35.0542 29.0562C35.444 28.8518 35.8234 28.6282 36.2744 28.3764C36.1559 28.2898 36.05 28.1869 35.9241 28.1254C35.3024 27.8225 34.6778 27.527 34.0495 27.2367C33.5904 27.025 33.1215 26.8332 32.6624 26.6206C31.6025 26.1304 30.5493 25.6268 29.4879 25.141C28.8656 24.8559 28.2275 24.6034 27.6037 24.3213C26.991 24.0443 26.3865 23.7496 25.7783 23.463C25.2267 23.2031 24.6767 22.9409 24.1214 22.6899C24.0677 22.6654 23.9775 22.6921 23.9157 22.7202C23.2165 23.0387 22.5211 23.3645 21.822 23.6822C21.2048 23.9629 20.5817 24.2287 19.966 24.5131C19.1894 24.8722 18.4232 25.2521 17.6443 25.6061C17.0092 25.8942 16.3541 26.1408 15.7213 26.434C14.835 26.845 13.9637 27.2886 13.0805 27.707C12.6258 27.9225 12.1585 28.1128 11.6963 28.3142C11.6963 28.355 11.6971 28.3957 11.6978 28.4364C12.1987 28.7111 12.6981 28.9888 13.2012 29.2599C14.3438 29.8775 15.485 30.4988 16.6336 31.1053C17.5258 31.5763 18.45 31.9917 19.3183 32.5027C19.7857 32.7774 20.2075 33.1625 20.5735 33.5661C21.1027 34.1496 21.4485 34.8627 21.658 35.6173C21.7586 35.978 21.7094 36.3771 21.7452 36.757C21.8503 37.87 21.5261 38.8994 20.9111 39.7791C20.338 40.5982 19.5516 41.2128 18.5819 41.6342C17.6063 42.0578 16.6254 42.0304 15.646 41.9333C15.0661 41.8763 14.4952 41.5831 13.9533 41.3276C13.1461 40.9462 12.3769 40.4871 11.5771 40.0909C10.3525 39.4844 9.16811 38.8224 8.26996 37.7671C7.65281 37.0421 7.15044 36.2475 6.7964 35.3508C6.34546 34.2096 6.18446 33.0366 6.28285 31.8325C6.34024 31.1253 6.46322 30.4166 6.78074 29.7627C6.91789 29.4798 6.7882 29.2806 6.3872 29.0873C5.84383 28.8259 5.28631 28.5838 4.77574 28.2676C4.02517 27.8033 3.27833 27.3212 2.59037 26.7717C1.8398 26.1719 1.35159 25.3551 0.884254 24.5168C0.308841 23.4845 0.112813 22.3611 0.0136811 21.2325C-0.0459471 20.5542 0.115049 19.8396 0.273064 19.1635C0.412445 18.5696 0.659157 17.9949 0.906614 17.4336C1.27855 16.5886 1.84874 15.877 2.5136 15.2372C3.4274 14.3574 4.54021 13.8028 5.68433 13.2948C5.97278 13.1666 6.26123 13.0363 6.54447 12.8986C6.8605 12.7453 6.90522 12.5157 6.77627 12.1862C6.63242 11.8181 6.49975 11.4353 6.44235 11.048C6.34844 10.4208 6.28434 9.7839 6.27092 9.15C6.24931 8.11252 6.55937 7.14982 6.97826 6.20342C7.50746 5.00598 8.28189 4.00553 9.31942 3.22945C9.96415 2.74736 10.6871 2.36377 11.3922 1.9661C12.1003 1.56621 12.8367 1.21668 13.5471 0.820498C14.8313 0.102923 16.2132 -0.13775 17.6532 0.0740422C18.1891 0.152539 18.7198 0.388768 19.208 0.639809C20.0406 1.06858 20.7077 1.70321 21.2115 2.49632C21.5626 3.04876 21.8384 3.63452 21.93 4.28693C21.9949 4.74606 22.1097 5.21556 22.0679 5.66802C21.9241 7.22166 21.3338 8.54943 20.0771 9.57951C19.378 10.1527 18.5663 10.4681 17.7836 10.8599C17.0726 11.2161 16.3496 11.5471 15.6311 11.8892C14.6234 12.3698 13.6037 12.829 12.6176 13.3496C12.4178 13.4547 12.0012 13.4007 12.0168 13.7865L12.0183 13.7872ZM20.2865 21.0222C20.0741 20.8867 19.9519 20.7897 19.8132 20.7238C19.445 20.549 19.0679 20.392 18.6975 20.2217C18.1101 19.9514 17.5272 19.6722 16.9392 19.4027C15.8785 18.9169 14.8149 18.4392 13.755 17.9527C13.0365 17.6224 12.3351 17.2522 11.6039 16.9537C10.6812 16.5768 9.81061 16.134 9.07792 15.4475C8.89457 15.2757 8.68885 15.1098 8.42127 15.3638C8.31319 15.466 8.15294 15.5164 8.01281 15.583C7.19889 15.9703 6.35887 16.3109 5.57551 16.7508C4.374 17.4262 3.56231 18.4681 3.24404 19.7951C2.9869 20.8667 3.05547 21.9471 3.55113 22.9898C4.03188 24.0006 4.75189 24.7574 5.71936 25.2892C6.57503 25.7594 7.46498 26.1711 8.30797 26.6614C8.58599 26.8235 8.73953 26.805 8.94152 26.6088C9.61309 25.9564 10.4307 25.5195 11.2611 25.1159C12.4752 24.5257 13.7073 23.9703 14.9342 23.406C15.634 23.0838 16.3392 22.7728 17.0435 22.4596C18.0974 21.9908 19.1529 21.5243 20.2873 21.0222H20.2865ZM27.7691 20.9778C27.9935 21.1103 28.1396 21.2162 28.3013 21.2888C29.0884 21.6443 29.8815 21.9856 30.6686 22.3418C31.5764 22.7521 32.479 23.172 33.3846 23.5859C33.84 23.794 34.2992 23.9954 34.7531 24.2072C35.3635 24.4916 35.9613 24.8056 36.5807 25.067C37.5035 25.4558 38.3681 25.9319 39.0933 26.6236C39.2811 26.8028 39.4227 26.8109 39.6411 26.6939C40.3179 26.3318 41.02 26.0156 41.6841 25.6342C42.2529 25.3077 42.8186 24.9574 43.3232 24.542C44.0141 23.9732 44.4457 23.2208 44.708 22.3559C45.0338 21.2799 45.004 20.2135 44.5962 19.1953C44.1706 18.1341 43.4387 17.281 42.4064 16.7279C41.55 16.2687 40.6712 15.8481 39.8237 15.3727C39.4324 15.1535 39.2237 15.2535 38.895 15.5312C38.1884 16.128 37.3857 16.596 36.5121 16.9411C35.8801 17.1914 35.2734 17.5047 34.6555 17.7913C34.0569 18.069 33.4614 18.3533 32.8607 18.6266C32.081 18.982 31.2984 19.3308 30.5158 19.6811C30.0134 19.9055 29.5066 20.1195 29.0087 20.3528C28.6047 20.5423 28.2119 20.7534 27.7691 20.9778ZM9.30302 9.59506C9.35743 9.91201 9.41706 10.3837 9.52364 10.8443C9.6101 11.2161 9.82104 11.3131 10.0938 11.1798C11.1001 10.6888 12.1055 10.1971 13.1155 9.71577C13.8042 9.38771 14.5048 9.08187 15.1935 8.75382C15.9844 8.37763 16.7744 8.0007 17.5533 7.60229C18.5417 7.09651 18.9904 6.36116 18.9956 5.32071C18.9971 4.94378 18.8197 4.54167 18.6408 4.19288C18.3501 3.62563 17.8381 3.245 17.2306 3.10874C16.4465 2.93175 15.7004 3.12725 15.0005 3.54566C14.4549 3.87223 13.8631 4.12179 13.2996 4.42022C12.4797 4.85566 11.6248 5.22222 10.9286 5.87167C9.88514 6.84473 9.36637 8.02883 9.30227 9.59432L9.30302 9.59506ZM38.7527 9.43881C38.7206 8.70124 38.5835 8.16954 38.187 7.30904C37.6287 6.10049 36.621 5.37255 35.4761 4.78975C34.7837 4.43652 34.0942 4.07736 33.3921 3.74338C32.8949 3.50641 32.3985 3.21686 31.8693 3.10948C30.8929 2.91176 29.7965 3.77448 29.482 4.70977C29.2449 5.41624 29.7175 6.73439 30.3451 7.06318C31.1881 7.50602 32.0244 7.96145 32.8718 8.3954C33.6649 8.80121 34.4743 9.1774 35.2681 9.58173C36.2006 10.0572 37.1241 10.5496 38.052 11.0339C38.3122 11.1694 38.4754 11.0317 38.5253 10.8066C38.6245 10.3556 38.6789 9.89498 38.7527 9.43881ZM38.3375 30.7602C37.4535 31.2304 36.6411 31.6651 35.8257 32.0969C34.6979 32.6937 33.565 33.281 32.4425 33.8867C31.8306 34.2163 31.2559 34.6206 30.6276 34.9109C29.5192 35.4226 29.0184 36.6356 29.5528 37.779C29.8725 38.464 30.4338 38.855 31.2119 38.9431C31.8634 39.0171 32.3993 38.7476 32.9419 38.4647C33.6187 38.1122 34.3059 37.779 34.9745 37.4131C35.6781 37.0281 36.4093 36.7059 37.0249 36.1542C38.1243 35.1693 38.6804 33.9645 38.7042 32.5145C38.7109 32.1183 38.62 31.7177 38.547 31.3237C38.5119 31.1349 38.4135 30.9579 38.3375 30.7595V30.7602ZM9.25383 32.6471C9.37755 33.1114 9.50799 33.689 9.68688 34.2511C9.92986 35.0131 10.4203 35.6048 11.0062 36.1498C11.6203 36.7207 12.3731 37.0362 13.0894 37.422C13.8981 37.8582 14.7195 38.2736 15.5342 38.6994C16.0977 38.9934 16.726 39.0897 17.2872 38.8609C18.245 38.4699 18.8018 37.7782 18.6758 36.5889C18.608 35.9506 18.2875 35.4685 17.7523 35.1501C17.0838 34.7517 16.3876 34.3992 15.7019 34.0282C14.9923 33.6438 14.2842 33.2558 13.5702 32.8796C12.7756 32.4612 11.9744 32.0561 11.1776 31.6422C10.7661 31.4282 10.3614 31.1993 9.94775 30.9898C9.76737 30.8979 9.56613 30.8757 9.51321 31.1364C9.42078 31.5903 9.35519 32.0487 9.25383 32.6478V32.6471Z" fill="white"/>
</g>
<path d="M66.5705 27.9885C65.4535 27.9885 64.4653 27.8708 63.606 27.6353C62.764 27.3998 62.0594 27.0466 61.4923 26.5757C60.9423 26.1047 60.5385 25.5245 60.2807 24.8349C60.0401 24.1453 59.9542 23.3547 60.0229 22.4633L61.7758 22.1606C61.6899 23.1024 61.8274 23.8846 62.1883 24.5069C62.5491 25.1124 63.1077 25.5665 63.8638 25.8693C64.6372 26.172 65.5566 26.3234 66.6221 26.3234C67.6532 26.3234 68.521 26.2057 69.2256 25.9702C69.9302 25.7179 70.463 25.3647 70.8238 24.9106C71.2019 24.4564 71.391 23.935 71.391 23.3463C71.391 22.6735 71.1761 22.1521 70.7465 21.7821C70.3341 21.3953 69.7841 21.1009 69.0967 20.8991C68.4093 20.6972 67.6618 20.5122 66.8541 20.344C66.0635 20.1758 65.2816 19.9908 64.5083 19.789C63.7349 19.5872 63.0303 19.318 62.3945 18.9817C61.7758 18.6284 61.2774 18.1743 60.8994 17.6193C60.5213 17.0642 60.3322 16.3494 60.3322 15.4748C60.3322 14.4992 60.5814 13.6583 61.0798 12.9518C61.5954 12.2454 62.3 11.6988 63.1936 11.3119C64.0872 10.9251 65.1269 10.7317 66.3127 10.7317C67.4985 10.7317 68.564 10.9167 69.5092 11.2867C70.4544 11.6567 71.2105 12.2202 71.7776 12.9771C72.3619 13.7171 72.6627 14.6506 72.6799 15.7775L70.8238 16.156C70.8238 15.5336 70.7121 14.987 70.4887 14.5161C70.2825 14.0283 69.9732 13.6246 69.5607 13.305C69.1655 12.9855 68.6843 12.75 68.1172 12.5986C67.5672 12.4304 66.9572 12.3463 66.2869 12.3463C65.4964 12.3463 64.7918 12.4725 64.1732 12.7248C63.5545 12.9771 63.0647 13.3303 62.7038 13.7844C62.3601 14.2217 62.1883 14.7431 62.1883 15.3486C62.1883 16.0887 62.4374 16.6606 62.9358 17.0642C63.4342 17.4679 64.0786 17.7875 64.8692 18.0229C65.6597 18.2416 66.5018 18.4434 67.3954 18.6284C68.1344 18.7966 68.8475 18.9817 69.535 19.1835C70.2395 19.3853 70.8668 19.6544 71.4167 19.9908C71.9839 20.3272 72.4307 20.7645 72.7572 21.3028C73.0837 21.841 73.247 22.5306 73.247 23.3716C73.247 24.2966 72.9978 25.1124 72.4994 25.8188C72.0182 26.5084 71.2793 27.0466 70.2825 27.4335C69.3029 27.8035 68.0656 27.9885 66.5705 27.9885Z" fill="white"/>
<path d="M81.3646 27.9885C80.3335 27.9885 79.4312 27.8372 78.6579 27.5344C77.8846 27.2148 77.2315 26.7607 76.6988 26.172C76.166 25.5833 75.7708 24.8853 75.513 24.078C75.2552 23.2706 75.1263 22.3792 75.1263 21.4037C75.1263 20.3945 75.2552 19.4694 75.513 18.6284C75.788 17.7706 76.1832 17.0222 76.6988 16.383C77.2143 15.7439 77.8416 15.2561 78.5806 14.9197C79.3367 14.5665 80.2046 14.3899 81.1841 14.3899C82.009 14.3899 82.7652 14.5329 83.4526 14.8188C84.14 15.0879 84.7329 15.5084 85.2313 16.0803C85.7296 16.6521 86.1077 17.3838 86.3655 18.2752C86.6233 19.1498 86.735 20.1927 86.7006 21.4037L76.2863 21.4794V20.0413L85.5148 19.9656L84.8704 21.0505C84.9391 19.9404 84.8188 19.0153 84.5095 18.2752C84.2173 17.5352 83.7791 16.9801 83.1948 16.6101C82.6277 16.2401 81.9489 16.055 81.1584 16.055C80.3163 16.055 79.5773 16.2653 78.9415 16.6858C78.3228 17.1063 77.8416 17.7202 77.4979 18.5275C77.1542 19.318 76.9823 20.2683 76.9823 21.3784C76.9823 22.9763 77.3432 24.2125 78.065 25.0872C78.804 25.945 79.921 26.3739 81.4161 26.3739C81.9832 26.3739 82.4816 26.315 82.9113 26.1972C83.3409 26.0627 83.7018 25.8777 83.9939 25.6422C84.3033 25.4067 84.561 25.1292 84.7673 24.8096C84.9735 24.4901 85.1281 24.1368 85.2313 23.75L86.9068 24.1537C86.735 24.7592 86.4858 25.3058 86.1593 25.7936C85.8499 26.2645 85.4633 26.6682 84.9993 27.0046C84.5353 27.3242 84.0025 27.568 83.401 27.7362C82.7995 27.9044 82.1207 27.9885 81.3646 27.9885Z" fill="white"/>
<path d="M89.1906 27.6858V14.6927H90.995L90.7115 19.2592H91.1239C91.2958 18.3173 91.5364 17.4847 91.8457 16.7615C92.1722 16.0214 92.6019 15.4411 93.1346 15.0206C93.6673 14.6002 94.3118 14.3899 95.0679 14.3899C95.257 14.3899 95.4718 14.4067 95.7124 14.4404C95.953 14.4572 96.2194 14.5161 96.5115 14.617L96.3826 16.5596C96.142 16.4755 95.8928 16.4083 95.6351 16.3578C95.3945 16.3073 95.1625 16.2821 94.939 16.2821C94.2516 16.2821 93.6673 16.5176 93.1862 16.9885C92.705 17.4427 92.2925 18.0566 91.9488 18.8303C91.6223 19.5872 91.3387 20.4281 91.0981 21.3532V27.6858H89.1906Z" fill="white"/>
<path d="M103.394 27.9885C102.362 27.9885 101.46 27.8372 100.687 27.5344C99.9136 27.2148 99.2605 26.7607 98.7278 26.172C98.195 25.5833 97.7998 24.8853 97.542 24.078C97.2842 23.2706 97.1553 22.3792 97.1553 21.4037C97.1553 20.3945 97.2842 19.4694 97.542 18.6284C97.817 17.7706 98.2122 17.0222 98.7278 16.383C99.2434 15.7439 99.8706 15.2561 100.61 14.9197C101.366 14.5665 102.234 14.3899 103.213 14.3899C104.038 14.3899 104.794 14.5329 105.482 14.8188C106.169 15.0879 106.762 15.5084 107.26 16.0803C107.759 16.6521 108.137 17.3838 108.394 18.2752C108.652 19.1498 108.764 20.1927 108.73 21.4037L98.3153 21.4794V20.0413L107.544 19.9656L106.899 21.0505C106.968 19.9404 106.848 19.0153 106.538 18.2752C106.246 17.5352 105.808 16.9801 105.224 16.6101C104.657 16.2401 103.978 16.055 103.187 16.055C102.345 16.055 101.606 16.2653 100.97 16.6858C100.352 17.1063 99.8706 17.7202 99.5269 18.5275C99.1832 19.318 99.0113 20.2683 99.0113 21.3784C99.0113 22.9763 99.3722 24.2125 100.094 25.0872C100.833 25.945 101.95 26.3739 103.445 26.3739C104.012 26.3739 104.511 26.315 104.94 26.1972C105.37 26.0627 105.731 25.8777 106.023 25.6422C106.332 25.4067 106.59 25.1292 106.796 24.8096C107.002 24.4901 107.157 24.1368 107.26 23.75L108.936 24.1537C108.764 24.7592 108.515 25.3058 108.188 25.7936C107.879 26.2645 107.492 26.6682 107.028 27.0046C106.564 27.3242 106.032 27.568 105.43 27.7362C104.829 27.9044 104.15 27.9885 103.394 27.9885Z" fill="white"/>
<path d="M111.22 27.6858V14.6927H113.05L112.74 18.8807H113.127C113.385 17.8547 113.711 17.0138 114.107 16.3578C114.519 15.685 115.035 15.1888 115.653 14.8693C116.272 14.5497 116.985 14.3899 117.793 14.3899C119.237 14.3899 120.328 14.9029 121.067 15.9289C121.823 16.9381 122.201 18.4266 122.201 20.3945V27.6858H120.293V20.5206C120.293 19.0237 120.044 17.9136 119.546 17.1904C119.065 16.4671 118.343 16.1055 117.381 16.1055C116.538 16.1055 115.799 16.3746 115.164 16.9128C114.545 17.4511 114.064 18.1575 113.72 19.0321C113.376 19.8899 113.179 20.815 113.127 21.8073V27.6858H111.22Z" fill="white"/>
<path d="M125.268 27.6858V14.6927H127.176V27.6858H125.268ZM126.222 12.3211C125.741 12.3211 125.38 12.2286 125.139 12.0436C124.899 11.8417 124.778 11.5474 124.778 11.1606C124.778 10.7905 124.899 10.5046 125.139 10.3028C125.38 10.1009 125.732 10 126.196 10C126.677 10 127.038 10.1009 127.279 10.3028C127.537 10.4878 127.665 10.7737 127.665 11.1606C127.665 11.5474 127.537 11.8417 127.279 12.0436C127.038 12.2286 126.686 12.3211 126.222 12.3211Z" fill="white"/>
<path d="M134.296 27.9381C133.144 27.9381 132.285 27.6269 131.718 27.0046C131.168 26.3823 130.893 25.4572 130.893 24.2294V16.3073H128.882V14.6927H130.094C130.489 14.6927 130.773 14.6254 130.945 14.4908C131.134 14.3394 131.245 14.0956 131.28 13.7592L131.512 11.7661H132.723V14.6927H136.693V16.3326H132.723V24.2294C132.723 24.919 132.887 25.4235 133.213 25.7431C133.54 26.0459 134.004 26.1972 134.605 26.1972C134.932 26.1972 135.275 26.1552 135.636 26.0711C135.997 25.9702 136.375 25.7768 136.771 25.4908V27.4335C136.289 27.6017 135.842 27.7278 135.43 27.8119C135.018 27.896 134.64 27.9381 134.296 27.9381Z" fill="white"/>
<path d="M143.404 32C142.699 32 142.012 31.9159 141.342 31.7477C140.671 31.5795 140.061 31.3272 139.511 30.9908C138.979 30.6544 138.54 30.2171 138.197 29.6789L139.408 28.4931C139.769 29.065 140.293 29.5023 140.981 29.805C141.668 30.1246 142.442 30.2844 143.301 30.2844C144.298 30.2844 145.122 30.0657 145.775 29.6284C146.428 29.1911 146.918 28.5268 147.245 27.6353C147.588 26.7439 147.76 25.617 147.76 24.2546L148.07 21.5298H147.631C147.425 22.7913 147.116 23.792 146.703 24.5321C146.291 25.2722 145.793 25.802 145.208 26.1216C144.624 26.4411 143.945 26.6009 143.172 26.6009C142.21 26.6009 141.393 26.3654 140.723 25.8945C140.07 25.4235 139.572 24.7255 139.228 23.8005C138.901 22.8586 138.738 21.7317 138.738 20.4197V14.6927H140.594V20.0665C140.594 21.698 140.852 22.909 141.367 23.6995C141.9 24.4901 142.665 24.8853 143.662 24.8853C144.212 24.8853 144.71 24.7592 145.157 24.5069C145.604 24.2546 145.99 23.8677 146.317 23.3463C146.643 22.8081 146.901 22.1437 147.09 21.3532C147.296 20.5627 147.425 19.6208 147.477 18.5275V14.6927H149.384V24.3807C149.384 25.3899 149.307 26.3066 149.152 27.1307C149.015 27.9381 148.783 28.6445 148.456 29.25C148.13 29.8555 147.726 30.3601 147.245 30.7638C146.781 31.1842 146.222 31.4954 145.569 31.6972C144.933 31.8991 144.212 32 143.404 32Z" fill="white"/>
<path d="M152.556 27.9633C152.092 27.9633 151.74 27.8624 151.5 27.6606C151.259 27.4587 151.139 27.1391 151.139 26.7018C151.139 26.2477 151.259 25.9197 151.5 25.7179C151.74 25.5161 152.092 25.4151 152.556 25.4151C153.038 25.4151 153.399 25.5161 153.639 25.7179C153.88 25.9197 154 26.2477 154 26.7018C154 27.5428 153.519 27.9633 152.556 27.9633Z" fill="white"/>
<defs>
<clipPath id="clip0_715_322">
<rect width="48" height="42" fill="white"/>
</clipPath>
</defs>
</svg>
