<svg width="174" height="22" viewBox="0 0 174 22" fill="none" xmlns="http://www.w3.org/2000/svg">
<path fill-rule="evenodd" clip-rule="evenodd" d="M162.535 1.3099C149.336 0.701781 134.383 0.558089 119.521 0.896381C93.8792 1.48019 78.2012 2.26526 55.3527 4.10964C50.3666 4.51219 42.5673 5.12431 38.021 5.47006C27.721 6.25323 23.5115 6.63561 16.5371 7.42161C8.19698 8.36155 4.81578 9.02809 1.71203 10.3441C0.597937 10.8165 0.334905 11.0001 1.26355 10.6571C5.32629 9.15672 16.3591 7.82895 37.5178 6.29408C42.0356 5.96636 48.5328 5.48695 51.9561 5.22883C73.5082 3.60379 85.9614 3.0308 109.15 2.59697C126.342 2.27532 134.218 2.27134 147.34 2.57779C155.877 2.77713 166.578 3.20524 166.257 3.33455C165.953 3.45731 153.815 3.69035 140.615 3.82686C137.099 3.86328 131.477 3.92619 128.124 3.9667C124.77 4.00732 120.532 4.053 118.706 4.06845C109.485 4.14605 94.7632 4.38812 81.7132 4.6767C52.9247 5.31334 37.7714 6.4782 23.0014 9.1903C16.7192 10.3438 15.6157 10.6901 15.5574 11.5265C15.474 12.7234 16.0604 12.7294 28.9708 11.6639C55.5797 9.46788 81.5637 8.94279 108.233 10.0623C123.155 10.6886 145.609 12.3566 145.108 12.8014C144.986 12.9096 124.175 14.0244 112.427 14.5523C103.983 14.9315 93.9282 15.5691 82.4275 16.4543C73.967 17.1055 62.0821 18.476 59.4862 19.0997C58.4078 19.3588 57.9521 20.0482 58.4455 20.6741C58.9758 21.3469 61.0268 21.3538 70.9364 20.7162C92.718 19.3147 104.491 19.1492 121.756 20.0017C124.552 20.1399 128.065 20.267 129.562 20.2843C132.727 20.3208 137.151 20.6103 139.658 20.945C140.624 21.0739 141.429 21.1655 141.448 21.1486C141.479 21.1211 139.017 20.6443 133.082 19.5283C129.287 18.8148 128.659 18.7418 121.781 18.2134C109.712 17.2862 102.258 17.1938 89.5372 17.8133C83.3995 18.1122 84.156 18.0011 91.9167 17.4636C98.3794 17.0161 106.607 16.5415 112.505 16.2762C119.871 15.9447 130.74 15.4099 133.33 15.2516C134.589 15.1746 137.902 14.9726 140.692 14.8027C149.248 14.2816 149.919 14.1793 150.255 13.3445C150.708 12.2165 149.51 11.6954 144.87 11.0036C138.652 10.0764 117.351 8.69244 102.613 8.25801C75.7728 7.46678 53.6256 8.12912 24.8855 10.5827C23.9537 10.6622 24.7563 10.4738 26.6087 10.1783C44.9302 7.25429 61.4762 6.49091 118.625 5.93313C139.422 5.73014 161.195 5.27308 167.783 4.90126C172.711 4.62312 174.004 4.18438 173.55 2.94319C173.213 2.02054 171.074 1.70329 162.535 1.3099ZM85.166 18.026C85.0963 18.0492 84.9854 18.0415 84.9195 18.0088C84.8537 17.9762 84.9107 17.9572 85.0463 17.9667C85.1818 17.9761 85.2357 18.0028 85.166 18.026Z" fill="white"/>
</svg>
